<svg xmlns="http://www.w3.org/2000/svg" viewBox="0 0 500 465" fill="#ffffff">
	<path class="st0" d="M265.8,10.3C103.8,10.3,8.3,88.8,8.3,211.1c0,0-11.3,209,243.7,209c0,0-29.1,17-29.1,26.5 c0,33.6,277.5-21.6,277.5-232C500.4,112.9,387.3,10.3,265.8,10.3z M334.2,340.7c-68.9,0-63.5-55.2-77.5-55.2 c-14,0-15.1,55.2-70.5,55.2c-74.8,0-87.2-88.2-87.2-133.2c0-44.9,5.4-71.5,38.7-71.5c33.4,0,38.7,22.7,38.7,22.7 s-3.2,84.4,9.1,84.4c12.4,0,16.7-66,67.7-66c50.5,0,66.9,64.4,71.7,64.4c4.8,0,3.8-3.8,3.8-44.4c0-40.6,2.2-72,41.4-72 c39.3,0,39.3,35.7,39.3,79S403.1,340.7,334.2,340.7z"/>
</svg>
